<svg width="19" height="28" viewBox="0 0 19 28" fill="none" xmlns="http://www.w3.org/2000/svg">
<path d="M11.3553 0.174849C13.5537 0.58467 15.5856 1.77998 16.9513 3.72663C19.2164 6.90275 19.6827 10.3862 17.9506 13.8356C15.6856 18.3777 13.0874 22.7492 10.5891 27.1547C9.95626 28.2818 9.05689 28.2818 8.424 27.1547C5.85914 22.6126 3.16104 18.1045 0.829351 13.3916C-1.33579 8.9177 0.96259 3.35096 5.12632 1.1311C7.0583 0.0723939 9.25675 -0.234972 11.3553 0.174849ZM13.687 10.4545C13.6537 8.06391 11.7883 6.18556 9.45661 6.15141C7.15823 6.15141 5.35949 8.06391 5.35949 10.5228C5.35949 12.8452 7.22485 14.6894 9.48992 14.6894C11.8216 14.7235 13.7203 12.811 13.687 10.4545Z" fill="#F27280"/>
</svg>
