<?xml version="1.0" standalone="no"?>
<!DOCTYPE svg PUBLIC "-//W3C//DTD SVG 20010904//EN"
 "http://www.w3.org/TR/2001/REC-SVG-20010904/DTD/svg10.dtd">
<svg version="1.0" xmlns="http://www.w3.org/2000/svg"
 width="256.000000pt" height="256.000000pt" viewBox="0 0 256.000000 256.000000"
 preserveAspectRatio="xMidYMid meet">
<metadata>
Created by potrace 1.11, written by Peter Selinger 2001-2013
</metadata>
<g transform="translate(0.000000,256.000000) scale(0.100000,-0.100000)"
fill="#000000" stroke="none">
<path d="M0 1280 l0 -1280 1280 0 1280 0 0 1280 0 1280 -1280 0 -1280 0 0
-1280z m707 216 l28 -24 3 -175 c3 -173 3 -175 -21 -203 l-25 -29 -166 -3
c-183 -4 -200 0 -222 53 -16 40 -20 308 -4 349 17 47 51 55 222 56 152 0 158
-1 185 -24z m357 -48 l25 -33 -89 -3 -90 -3 0 -39 c0 -39 1 -40 35 -40 33 0
35 -2 35 -35 0 -33 -2 -35 -35 -35 l-35 0 0 -50 0 -50 85 0 c47 0 85 -3 85 -7
0 -4 -10 -17 -22 -30 -20 -22 -28 -23 -159 -23 l-138 0 10 32 c5 18 9 89 9
158 0 69 -4 140 -9 158 l-10 32 139 0 139 0 25 -32z m200 -24 l37 -55 47 55
c44 54 48 56 94 56 l48 0 -157 -190 -157 -190 -49 0 -48 0 71 86 c40 49 67 91
63 97 -3 7 -32 48 -63 92 -31 44 -59 86 -64 93 -5 9 10 12 67 12 l74 0 37 -56z
m553 45 c39 -15 43 -24 43 -115 0 -105 -7 -112 -120 -116 l-85 -3 -3 -38 c-2
-22 1 -52 7 -68 l10 -29 -77 0 -77 0 0 190 0 190 137 0 c75 0 149 -5 165 -11z
m398 1 c42 -16 55 -64 55 -195 0 -115 0 -117 -29 -146 l-29 -29 -137 0 c-131
0 -137 1 -160 25 -24 23 -25 29 -25 163 0 131 1 140 23 159 12 11 29 23 37 26
27 10 238 7 265 -3z m-787 -280 l63 -90 -75 0 -75 0 -31 45 -31 45 38 45 c21
24 40 44 43 45 4 0 34 -40 68 -90z"/>
<path d="M442 1458 c-8 -8 -12 -60 -12 -169 0 -178 0 -179 78 -187 37 -3 53 0
72 16 25 20 25 23 25 170 0 180 -1 182 -89 182 -35 0 -67 -5 -74 -12z"/>
<path d="M1654 1406 c-3 -7 -4 -35 -2 -62 3 -47 4 -49 35 -52 53 -5 73 12 73
61 0 24 -5 48 -12 55 -17 17 -87 15 -94 -2z"/>
<path d="M2032 1412 c-9 -7 -12 -39 -10 -128 l3 -119 55 0 55 0 3 114 c2 75
-1 118 -9 127 -12 15 -76 19 -97 6z"/>
</g>
</svg>
